<svg xmlns="http://www.w3.org/2000/svg" width="33" height="33" viewBox="0 0 256 370" version="1.1"><path d="M 171.664 7.064 C 164.186 13.647, 149.302 31.492, 141.773 42.901 C 123.029 71.307, 114.985 97.467, 115.014 129.925 C 115.029 146.950, 115.449 150, 117.783 150 C 119.518 150, 136.327 141.229, 142.500 137.103 C 146.500 134.429, 146.500 134.429, 147.102 111.965 C 147.723 88.822, 148.767 80.670, 153.543 61.686 C 156.856 48.519, 164.750 28.890, 172.035 15.707 C 179.953 1.379, 179.886 -0.173, 171.664 7.064 M 135.275 10.610 C 102.650 32.674, 82.253 58.320, 74.327 87.243 C 68.661 107.920, 69.844 137.426, 76.983 153.500 C 77.471 154.600, 78.775 157.638, 79.879 160.250 C 80.984 162.863, 82.484 165, 83.213 165 C 84.731 165, 99.098 159.155, 100.288 158.053 C 100.722 157.651, 99.935 151.681, 98.538 144.786 C 96.471 134.575, 96 129.382, 96 116.801 C 96 85.715, 102.931 62.630, 119.823 37.453 C 125.718 28.667, 138.476 13.773, 143.477 9.839 C 144.872 8.742, 146.476 6.980, 147.042 5.922 C 148.952 2.352, 145.383 3.774, 135.275 10.610 M 136 162.565 C 130.225 164.980, 124.953 166.966, 124.285 166.978 C 123.617 166.990, 122.641 167.802, 122.117 168.782 C 120.720 171.392, 131.720 204, 133.997 204 C 135.597 204, 142.956 201.242, 152.250 197.158 C 154.863 196.010, 157 194.427, 157 193.641 C 157 192.854, 156.128 189.351, 155.061 185.855 C 153.995 182.360, 152.118 174.662, 150.890 168.750 C 149.662 162.838, 148.172 158.039, 147.579 158.087 C 146.985 158.135, 141.775 160.150, 136 162.565 M 96.250 175.198 C 91.389 176.549, 89 177.705, 89 178.705 C 89 181.914, 106.528 213, 108.337 213 C 109.674 213, 118.627 209.489, 119.096 208.781 C 119.424 208.286, 117.061 201.773, 113.846 194.309 C 110.631 186.844, 108 180.146, 108 179.424 C 108 178.702, 106.987 177.002, 105.750 175.647 C 103.500 173.182, 103.500 173.182, 96.250 175.198 M 149.250 213.175 C 142.888 215.214, 140 216.620, 140 217.676 C 140 218.520, 141.102 222.876, 142.449 227.355 C 147.372 243.728, 149 255.677, 149 275.443 C 149 305.772, 144.498 323.253, 128.699 354.261 C 124.843 361.829, 121.972 368.305, 122.319 368.652 C 123.330 369.663, 133.570 361.261, 140.693 353.577 C 153.550 339.706, 161.413 325.461, 166.278 307.223 C 169.402 295.513, 169.406 295.471, 169.439 269 C 169.472 241.720, 169.166 238.611, 164.339 217.250 C 162.405 208.688, 162.860 208.811, 149.250 213.175 M 120.189 220.714 C 118.918 220.957, 117.640 221.775, 117.349 222.533 C 116.824 223.900, 127.812 240.926, 129.250 240.975 C 130.589 241.020, 130.046 236.361, 127.895 229.355 C 125.839 222.659, 124.393 219.862, 123.128 220.136 C 122.782 220.211, 121.460 220.471, 120.189 220.714" stroke="none" fill="#f48b35" fill-rule="evenodd"></path><path d="M 159.017 79.989 C 157.178 81.126, 159.900 82.561, 167.389 84.400 C 171.177 85.331, 175.525 86.737, 177.050 87.526 C 180.819 89.475, 184 93.729, 184 96.819 C 184 104.821, 171.948 117.554, 151.500 131.155 C 138.748 139.637, 120.437 150, 118.201 150 C 117.578 150, 112.891 152.058, 107.784 154.574 C 97.653 159.565, 88.734 163.415, 82.500 165.488 C 80.300 166.220, 76.025 167.770, 73 168.934 C 55.122 175.810, 16.456 185, 5.401 185 C 2.903 185, 2 185.439, 2 186.655 C 2 188.156, 3.613 188.253, 19.250 187.690 C 39.012 186.978, 55.305 185.033, 72.500 181.333 C 79.100 179.913, 85.400 178.694, 86.500 178.625 C 87.600 178.556, 88.733 178.193, 89.017 177.818 C 90.115 176.369, 103.964 173.133, 104.608 174.175 C 105.042 174.877, 105.476 174.848, 105.946 174.087 C 106.785 172.729, 119.930 168.838, 121.143 169.589 C 121.615 169.880, 122 169.627, 122 169.028 C 122 168.428, 122.788 167.668, 123.750 167.339 C 137.854 162.515, 158.884 153.545, 169.108 147.992 C 200.130 131.144, 216.266 114.127, 212.938 101.768 C 210.060 91.081, 196.837 84.218, 173 81.040 C 168.325 80.416, 163.517 79.770, 162.315 79.604 C 161.113 79.438, 159.629 79.611, 159.017 79.989 M 212.459 125.067 C 211.647 126.380, 211.494 126.272, 217.192 128.383 C 224.572 131.117, 227 133.490, 227 137.971 C 227 150.466, 202.628 171.996, 169.487 188.777 C 155.749 195.733, 145.515 200.335, 139 202.487 C 135.975 203.486, 132.150 204.867, 130.500 205.557 C 125.925 207.467, 120.202 208.869, 119.567 208.234 C 119.255 207.922, 119 208.120, 119 208.675 C 119 209.648, 112.615 212.002, 108.500 212.547 C 107.400 212.692, 105.225 213.307, 103.667 213.913 C 95.420 217.118, 51.237 226, 43.539 226 C 39.402 226, 36.825 226.908, 37.565 228.105 C 38.318 229.324, 69.538 229.240, 80.026 227.990 C 95.212 226.181, 115.453 222.874, 117.561 221.858 C 118.695 221.311, 121.170 220.730, 123.061 220.565 C 127.449 220.184, 132.611 218.776, 147.440 213.914 C 154.008 211.762, 160.190 210, 161.179 210 C 164.215 210, 187.853 200.364, 200 194.175 C 237.252 175.194, 257.774 155.015, 254.016 141.061 C 252.778 136.461, 246.922 130.909, 240.500 128.243 C 232.498 124.923, 213.853 122.810, 212.459 125.067 M 160.256 160.029 C 154.867 162.195, 151.991 173.686, 155.561 178.783 C 159.219 184.006, 167.090 185.462, 172.810 181.974 C 176.152 179.937, 179 174.857, 179 170.933 C 179 167.353, 175.887 161.993, 172.915 160.456 C 169.796 158.843, 163.715 158.638, 160.256 160.029" stroke="none" fill="#1d1e20" fill-rule="evenodd"></path></svg>