<svg xmlns="http://www.w3.org/2000/svg" width="442" height="160" viewBox="0 0 442 160" version="1.1"><path d="M 65.959 7.750 C 52.303 22.845, 44.969 40.070, 45.015 56.934 C 45.039 65.441, 45.660 65.818, 53.132 61.867 C 59.500 58.500, 59.500 58.500, 60.149 45.500 C 60.881 30.824, 62.828 23.283, 69.116 10.772 C 71.252 6.522, 73 2.809, 73 2.522 C 73 0.858, 70.542 2.683, 65.959 7.750 M 49.950 8.180 C 39.203 16.810, 32.705 25.025, 28.855 34.848 C 24.702 45.444, 26.547 68.738, 31.695 70.713 C 32.513 71.027, 34.759 70.532, 36.687 69.612 C 39.368 68.334, 40.021 67.537, 39.467 66.221 C 38.082 62.933, 37.739 43.575, 38.961 37.687 C 40.755 29.044, 47.105 17.266, 54.066 9.669 C 61.714 1.323, 59.490 0.518, 49.950 8.180 M 317.658 16.143 C 316.817 17.439, 311.628 28.774, 306.126 41.332 C 295.317 66.004, 293.730 69, 291.477 69 C 290.665 69, 290 69.675, 290 70.500 C 290 71.708, 291.556 72, 298 72 C 304.272 72, 306 71.691, 306 70.570 C 306 69.783, 304.992 68.995, 303.760 68.820 C 300.612 68.370, 300.524 66.133, 303.398 59.635 C 305.890 54, 305.890 54, 316.322 54 C 326.754 54, 326.754 54, 328.877 58.935 C 331.690 65.475, 331.602 67.821, 328.500 69 C 323.160 71.030, 326.068 72, 337.500 72 C 347.056 72, 349 71.746, 349 70.500 C 349 69.675, 348.170 69, 347.155 69 C 346.140 69, 344.632 68.213, 343.803 67.250 C 342.975 66.287, 337.449 54.250, 331.524 40.500 C 325.599 26.750, 320.399 15.114, 319.969 14.643 C 319.538 14.172, 318.498 14.847, 317.658 16.143 M 256.694 17.639 C 255.683 18.650, 256.947 20, 258.904 20 C 259.886 20, 261.422 20.809, 262.318 21.799 C 263.213 22.788, 268.378 34.600, 273.796 48.049 C 279.783 62.911, 284.222 72.611, 285.115 72.783 C 286.186 72.990, 288.977 66.750, 295.403 49.783 C 304.006 27.071, 307.602 20, 310.551 20 C 311.348 20, 312 19.325, 312 18.500 C 312 17.284, 310.389 17, 303.500 17 C 296.611 17, 295 17.284, 295 18.500 C 295 19.341, 295.892 20, 297.031 20 C 298.149 20, 299.325 20.683, 299.646 21.519 C 300.129 22.779, 290.541 50.424, 288.119 54.751 C 287.242 56.319, 275 26.192, 275 22.465 C 275 20.502, 275.509 20, 277.500 20 C 279.056 20, 280 19.433, 280 18.500 C 280 17.255, 278.074 17, 268.667 17 C 262.433 17, 257.046 17.288, 256.694 17.639 M 315.610 31.822 C 314.850 33.051, 308 49.044, 308 49.589 C 308 49.815, 311.600 50, 316 50 C 320.400 50, 324 49.590, 324 49.089 C 324 48.181, 317.191 31.858, 316.542 31.208 C 316.354 31.021, 315.935 31.297, 315.610 31.822 M 54.500 70.163 C 51.750 71.250, 49.162 72.469, 48.749 72.871 C 47.978 73.622, 51.605 85.778, 53.085 87.404 C 53.961 88.366, 62.566 85.512, 63.540 83.935 C 64.139 82.965, 61.203 69.943, 60.137 68.843 C 59.787 68.481, 57.250 69.075, 54.500 70.163 M 36.187 76.036 C 33.873 76.982, 33.873 76.982, 36.977 82.741 C 41.798 91.687, 42.324 92.208, 45.376 91.047 C 46.819 90.498, 48 89.913, 48 89.746 C 48 89.579, 46.680 86.305, 45.066 82.471 C 42 75.185, 40.652 74.208, 36.187 76.036 M 60.500 91.462 C 55.941 92.890, 55.959 92.780, 58.499 104 C 59.761 109.575, 60.065 114.195, 59.683 122 C 59.133 133.253, 57.641 138.681, 51.929 150.218 C 50.099 153.913, 48.957 157.288, 49.391 157.718 C 50.612 158.928, 62.309 146.001, 64.813 140.674 C 70.121 129.382, 71.258 113.430, 67.979 96.250 C 66.706 89.580, 66.642 89.539, 60.500 91.462 M 46.727 95.606 C 45.899 96.434, 50.226 102.972, 51.611 102.988 C 52.419 102.997, 52.431 101.907, 51.654 99 C 50.665 95.293, 48.518 93.815, 46.727 95.606" stroke="none" fill="#f48c31" fill-rule="evenodd"/><path d="M 121.990 18.250 C 116.682 21.862, 114.673 25.290, 114.753 30.595 C 114.849 36.948, 116.807 39.324, 128.046 46.729 C 133.246 50.155, 138.512 54.118, 139.750 55.535 C 143.443 59.765, 142.633 65.104, 137.928 67.537 C 130.067 71.602, 120.363 66.260, 118.336 56.750 C 118.014 55.237, 117.131 54, 116.375 54 C 115.305 54, 115 56.106, 115 63.500 C 115 73.232, 115.377 74.031, 118.925 71.815 C 120.387 70.902, 121.729 70.902, 124.777 71.815 C 130.380 73.494, 138.601 73.283, 142.660 71.357 C 150.494 67.640, 153.495 57.062, 148.749 49.898 C 147.511 48.029, 142.132 43.575, 136.795 40 C 131.459 36.425, 126.172 32.643, 125.046 31.595 C 119.646 26.568, 126.483 18.399, 134.423 20.391 C 138.378 21.384, 142.755 25.764, 144.238 30.214 C 146.727 37.681, 148 36.114, 148 25.583 C 148 17.982, 147.707 16, 146.583 16 C 145.804 16, 144.979 16.563, 144.749 17.250 C 144.416 18.250, 143.396 18.250, 139.652 17.250 C 132.281 15.281, 125.813 15.648, 121.990 18.250 M 159.235 18.219 C 159.467 18.924, 160.746 19.644, 162.078 19.821 C 166.697 20.432, 167 21.954, 167 44.500 C 167 67.046, 166.697 68.568, 162.078 69.179 C 160.746 69.356, 159.471 70.063, 159.245 70.750 C 158.930 71.708, 161.914 72, 172 72 C 182.086 72, 185.070 71.708, 184.755 70.750 C 184.529 70.063, 183.254 69.344, 181.922 69.154 C 177.412 68.510, 177 67.400, 177 55.878 C 177 45, 177 45, 189.500 45 C 202 45, 202 45, 202 55.309 C 202 66.414, 201.213 68.632, 197.078 69.179 C 195.746 69.356, 194.471 70.063, 194.245 70.750 C 193.930 71.708, 196.914 72, 207 72 C 217.086 72, 220.070 71.708, 219.755 70.750 C 219.529 70.063, 218.254 69.344, 216.922 69.154 C 212.063 68.460, 212 68.146, 212 44.500 C 212 20.958, 212.078 20.557, 216.790 19.846 C 218.049 19.656, 219.063 19.050, 219.043 18.500 C 219.021 17.904, 213.922 17.387, 206.410 17.219 C 196.524 16.999, 193.904 17.214, 194.235 18.219 C 194.467 18.924, 195.746 19.644, 197.078 19.821 C 201.082 20.351, 202 22.658, 202 32.191 C 202 41, 202 41, 189.500 41 C 177 41, 177 41, 177 31.622 C 177 21.756, 177.514 20.492, 181.790 19.846 C 183.049 19.656, 184.063 19.050, 184.043 18.500 C 184.021 17.904, 178.922 17.387, 171.410 17.219 C 161.524 16.999, 158.904 17.214, 159.235 18.219 M 227 18.500 C 227 19.384, 227.923 20.006, 229.250 20.015 C 234.382 20.050, 234.478 20.443, 234.804 42.754 C 235.150 66.374, 234.671 69, 230.025 69 C 228.003 69, 227 69.497, 227 70.500 C 227 71.757, 229.120 72, 240.083 72 C 250.103 72, 253.070 71.707, 252.755 70.750 C 252.529 70.063, 251.254 69.344, 249.922 69.154 C 245.063 68.460, 245 68.146, 245 44.500 C 245 20.854, 245.063 20.540, 249.922 19.846 C 251.254 19.656, 252.529 18.938, 252.755 18.250 C 253.070 17.293, 250.103 17, 240.083 17 C 229.120 17, 227 17.243, 227 18.500 M 350 18.014 C 350 18.614, 351.359 19.578, 353.021 20.157 C 354.683 20.736, 356.483 22.033, 357.021 23.039 C 357.568 24.061, 358 33.865, 358 45.243 C 358 66.999, 357.677 68.570, 353.078 69.179 C 351.746 69.356, 350.471 70.063, 350.245 70.750 C 349.934 71.695, 352.297 72, 359.917 72 C 368.213 72, 370 71.734, 370 70.500 C 370 69.587, 369.069 69, 367.622 69 C 363.274 69, 362.936 67.405, 363.227 48.239 C 363.500 30.239, 363.500 30.239, 372.997 51.145 C 379.500 65.462, 382.943 71.965, 383.919 71.776 C 384.704 71.624, 389.655 62.114, 394.923 50.643 C 404.500 29.786, 404.500 29.786, 404.773 47.415 C 404.938 58.068, 404.642 65.801, 404.024 66.956 C 403.461 68.007, 401.798 69.009, 400.328 69.184 C 398.857 69.358, 397.470 70.063, 397.244 70.750 C 396.929 71.707, 399.914 72, 410 72 C 420.086 72, 423.070 71.708, 422.755 70.750 C 422.529 70.063, 421.254 69.344, 419.922 69.154 C 415.063 68.460, 415 68.146, 415 44.500 C 415 20.795, 415.054 20.530, 420 19.846 C 421.375 19.656, 422.387 19.050, 422.250 18.500 C 422.107 17.930, 418.289 17.500, 413.368 17.500 C 404.737 17.500, 404.737 17.500, 395.775 37 C 390.847 47.725, 386.718 56.601, 386.600 56.724 C 386.482 56.847, 382.288 48.072, 377.278 37.224 C 368.170 17.500, 368.170 17.500, 359.085 17.212 C 353.021 17.021, 350 17.287, 350 18.014 M 65.708 35.320 C 65.369 36.202, 66.671 37.032, 69.634 37.825 C 74.724 39.186, 75.728 40.828, 74.008 44.981 C 72.488 48.649, 58.917 59.160, 51.196 62.648 C 48.063 64.063, 42.800 66.488, 39.500 68.038 C 33.080 71.051, 16.485 76.097, 6.250 78.148 C 2.813 78.837, 0 79.760, 0 80.200 C 0 82.377, 26.095 79.818, 33.794 76.887 C 35.282 76.320, 38.712 75.436, 41.415 74.923 C 44.118 74.409, 48.655 72.889, 51.497 71.545 C 54.340 70.200, 57.793 68.895, 59.172 68.645 C 62.994 67.952, 72.816 62.711, 79.396 57.853 C 85.542 53.315, 89.210 47.520, 88.253 43.858 C 87.361 40.449, 81.726 37.125, 74.125 35.526 C 65.425 33.696, 66.322 33.718, 65.708 35.320 M 87.543 53.930 C 87.125 54.607, 88.036 55.465, 89.845 56.096 C 91.492 56.670, 93.109 57.841, 93.437 58.697 C 94.378 61.147, 90.890 66.099, 84.772 71 C 77.344 76.950, 59.420 86.673, 53.388 88.025 C 50.744 88.618, 48.049 89.545, 47.397 90.085 C 46.746 90.626, 44.928 91.252, 43.357 91.476 C 41.785 91.701, 36 92.786, 30.500 93.889 C 25 94.991, 18.812 96.162, 16.750 96.491 C 10.455 97.497, 12.568 99.001, 20.250 98.982 C 29.980 98.958, 53.926 95.082, 56.393 93.132 C 57.002 92.651, 59.975 91.694, 63 91.005 C 77.134 87.785, 91.923 80.219, 100.742 71.698 C 107.519 65.149, 107.489 58.351, 100.670 55.511 C 95.856 53.506, 88.363 52.603, 87.543 53.930 M 63.413 70.493 C 59.868 75.903, 65.207 82.060, 70.459 78.619 C 72.215 77.468, 73 76.057, 73 74.048 C 73 68.182, 66.505 65.773, 63.413 70.493 M 340.750 91.080 C 338.741 92.250, 338.432 96.032, 340.200 97.800 C 342.086 99.686, 345.815 99.213, 347.036 96.933 C 347.896 95.325, 347.788 94.325, 346.548 92.433 C 344.825 89.803, 343.480 89.490, 340.750 91.080 M 89.667 92.667 C 88.242 94.092, 89.128 95.610, 92.022 96.702 C 95.044 97.843, 95.044 97.843, 94.772 117.171 C 94.500 136.500, 94.500 136.500, 92 136.851 C 89.398 137.216, 87.775 138.827, 88.625 140.202 C 88.896 140.641, 97.805 141, 108.423 141 C 127.728 141, 127.728 141, 128.364 136.360 C 129.371 129.017, 129.205 128, 127 128 C 125.846 128, 125 128.667, 125 129.577 C 125 130.444, 123.685 132.469, 122.077 134.077 C 119.512 136.642, 118.437 137, 113.299 137 C 104.245 137, 103 135.664, 103 125.943 C 103 118.083, 103.027 118, 105.566 118 C 109.157 118, 111.935 119.699, 113.023 122.561 C 113.533 123.902, 114.637 125, 115.475 125 C 116.729 125, 117 123.398, 117 116 C 117 108.602, 116.729 107, 115.475 107 C 114.637 107, 113.539 108.081, 113.037 109.403 C 111.922 112.336, 111.466 112.634, 106.742 113.521 C 103 114.223, 103 114.223, 103 105.571 C 103 96.919, 103 96.919, 111.214 97.210 C 119.364 97.498, 119.446 97.527, 121.783 101 C 125.246 106.148, 126.567 105.542, 126.146 99 C 125.951 95.975, 125.587 93.162, 125.337 92.750 C 124.775 91.823, 90.590 91.743, 89.667 92.667 M 179.694 105.189 C 175.055 110.086, 174.225 113, 177.469 113 C 178.758 113, 179 114.879, 179 124.889 C 179 139.723, 179.963 141.500, 188 141.500 C 192.264 141.500, 193.521 141.075, 195.128 139.090 C 196.479 137.422, 196.760 136.360, 196.040 135.640 C 195.320 134.920, 194.631 134.969, 193.800 135.800 C 193.140 136.460, 191.392 137, 189.917 137 C 186.490 137, 186.031 135.324, 186.014 122.750 C 186 113, 186 113, 189.917 113 C 193.773 113, 195.177 111.783, 194.246 109.250 C 193.986 108.543, 192.096 108, 189.893 108 C 186.018 108, 186 107.982, 186 104 C 186 101.800, 185.662 100.026, 185.250 100.058 C 184.838 100.089, 182.337 102.399, 179.694 105.189 M 136.299 108.106 C 132.038 109.338, 131.349 110.746, 134.341 112.110 C 137.212 113.417, 138.006 116.417, 137.986 125.875 C 137.969 134.486, 137.355 136.517, 134.359 137.882 C 130.094 139.826, 132.805 141, 141.559 141 C 147.946 141, 150 140.674, 150 139.661 C 150 138.924, 148.875 137.808, 147.500 137.182 C 145.101 136.089, 145 135.676, 145 126.986 C 145 116.839, 146.222 113.815, 150.998 112.151 C 154.878 110.798, 157.963 111.772, 159.077 114.702 C 159.585 116.037, 160 121.592, 160 127.046 C 160 136.789, 159.956 136.973, 157.500 137.589 C 156.125 137.934, 155 138.861, 155 139.647 C 155 140.801, 156.693 141.022, 163.750 140.789 C 172.439 140.502, 174.414 139.489, 170.137 137.513 C 168.223 136.629, 167.994 135.691, 167.940 128.513 C 167.808 110.746, 165.821 107, 156.529 107 C 152.595 107, 150.367 107.619, 147.640 109.470 C 144 111.940, 144 111.940, 144 109.470 C 144 106.736, 142.163 106.410, 136.299 108.106 M 207.500 109.271 C 204.864 110.745, 202.733 113.029, 201.250 115.966 C 194.345 129.646, 204.833 144.318, 219.544 141.558 C 224.041 140.714, 229.988 135.629, 228.384 134 C 227.553 133.158, 226.400 133.396, 223.884 134.930 C 219.858 137.384, 215.284 137.588, 212.230 135.449 C 209.400 133.467, 208.400 131.515, 207.534 126.284 C 206.836 122.067, 206.836 122.067, 218.168 121.784 C 229.500 121.500, 229.500 121.500, 229.336 118.094 C 228.981 110.740, 224.566 106.988, 216.300 107.016 C 213.214 107.027, 210.072 107.832, 207.500 109.271 M 240 108.249 C 237.525 108.754, 234.860 109.786, 234.077 110.542 C 232.853 111.725, 233.009 112.053, 235.190 112.882 C 238.571 114.168, 239.003 115.640, 238.985 125.832 C 238.969 134.864, 238.689 135.849, 235.673 137.500 C 232.028 139.494, 234.124 140.505, 242.494 140.789 C 249.680 141.033, 251 140.834, 251 139.508 C 251 138.644, 250.213 137.647, 249.250 137.292 C 248.287 136.936, 247.169 136.163, 246.765 135.573 C 245.517 133.750, 245.923 125.622, 247.534 120.199 C 249.263 114.375, 251.799 112.287, 255.038 114.020 C 257.089 115.118, 261 114.518, 261 113.106 C 261 112.688, 262.295 112.536, 263.877 112.769 C 266.446 113.146, 266.821 113.678, 267.377 117.735 C 268.190 123.668, 267.998 146.785, 267.109 150 C 266.678 151.561, 265.567 152.623, 264.151 152.827 C 262.658 153.043, 261.992 153.726, 262.203 154.827 C 262.472 156.230, 264.094 156.546, 272.262 156.786 C 281.485 157.057, 282 156.965, 282 155.036 C 282 153.578, 281.347 153, 279.700 153 C 276.122 153, 275 151.072, 275 144.924 C 275 139.248, 275 139.248, 279.261 140.780 C 289.932 144.617, 300.211 136.689, 300.334 124.526 C 300.437 114.332, 293.910 107, 284.733 107 C 281.995 107, 278.870 107.695, 277.465 108.615 C 275.183 110.110, 275 110.106, 275 108.554 C 275 107.123, 274.305 106.980, 270.250 107.575 C 267.637 107.959, 264.526 108.636, 263.335 109.079 C 261.805 109.649, 261.008 109.463, 260.616 108.443 C 259.590 105.768, 253.419 106.693, 249.535 110.104 C 246 113.207, 246 113.207, 246 110.663 C 246 107.380, 245.415 107.145, 240 108.249 M 311 108.249 C 308.525 108.754, 305.860 109.786, 305.077 110.542 C 303.853 111.725, 304.009 112.053, 306.190 112.882 C 309.601 114.179, 310 115.609, 310 126.527 C 310 135.732, 309.954 135.913, 307.278 137.195 C 302.698 139.391, 304.594 140.487, 313.494 140.789 C 320.680 141.033, 322 140.834, 322 139.508 C 322 138.644, 321.212 137.647, 320.250 137.292 C 319.288 136.936, 318.169 136.163, 317.765 135.573 C 316.517 133.750, 316.923 125.622, 318.534 120.199 C 320.263 114.375, 322.799 112.287, 326.038 114.020 C 330.127 116.209, 334.052 112.835, 331.961 108.928 C 330.296 105.816, 324.770 106.385, 320.535 110.104 C 317 113.207, 317 113.207, 317 110.663 C 317 107.380, 316.415 107.145, 311 108.249 M 338.739 107.959 C 336.670 108.361, 334.702 108.964, 334.365 109.301 C 333.217 110.450, 334.932 113, 336.852 113 C 339.305 113, 339.973 115.566, 339.973 125 C 339.973 134.582, 339.368 136.691, 336.406 137.434 C 335.082 137.766, 334 138.705, 334 139.519 C 334 140.723, 335.777 141, 343.500 141 C 351.079 141, 353 140.710, 353 139.567 C 353 138.779, 351.988 137.819, 350.750 137.433 C 349.512 137.046, 348.169 136.229, 347.765 135.615 C 347.361 135.002, 347.024 128.313, 347.015 120.750 C 346.998 105.265, 347.627 106.236, 338.739 107.959 M 359.959 109.887 C 353.998 115.848, 356.380 121.657, 367.916 129.287 C 371.006 131.330, 372.046 132.636, 371.815 134.184 C 370.995 139.680, 363.572 138.521, 360.675 132.444 C 358.238 127.334, 357 128.207, 357 135.038 C 357 140.704, 357.138 141.061, 359.250 140.834 C 360.488 140.701, 363.185 140.958, 365.243 141.406 C 372.918 143.075, 379 139.001, 379 132.191 C 379 127.610, 376.935 125.046, 369.339 120.199 C 366.500 118.388, 363.927 116.252, 363.620 115.453 C 362.628 112.866, 364.108 111, 367.153 111 C 369.372 111, 370.511 111.734, 371.797 113.994 C 374.369 118.514, 376 117.820, 376 112.206 C 376 107.411, 376 107.411, 369.459 107.170 C 363.392 106.946, 362.703 107.143, 359.959 109.887 M 393.500 108.167 C 387.083 111.716, 383.714 117.339, 383.714 124.500 C 383.714 135.781, 392.706 143.591, 403.388 141.587 C 407.108 140.889, 413.109 137.222, 413.756 135.251 C 414.499 132.987, 411.110 132.768, 408.395 134.904 C 402.027 139.913, 393.259 135.479, 392.276 126.753 C 391.748 122.070, 391.748 122.070, 402.624 121.785 C 413.500 121.500, 413.500 121.500, 413.401 117.080 C 413.320 113.445, 412.740 112.156, 410.135 109.830 C 407.426 107.409, 406.139 107.004, 401.234 107.030 C 398.080 107.047, 394.600 107.559, 393.500 108.167 M 422.959 109.887 C 417.010 115.837, 419.388 121.668, 430.851 129.240 C 435.037 132.005, 436.035 134.565, 433.800 136.800 C 430.944 139.656, 426.406 137.627, 423.628 132.250 C 421.130 127.416, 420 128.285, 420 135.038 C 420 140.704, 420.138 141.061, 422.250 140.834 C 423.488 140.701, 426.185 140.958, 428.243 141.406 C 435.918 143.075, 442 139.001, 442 132.191 C 442 127.610, 439.935 125.046, 432.339 120.199 C 429.500 118.388, 426.927 116.252, 426.620 115.453 C 425.629 112.870, 427.108 111, 430.141 111 C 432.426 111, 433.520 111.768, 435.133 114.500 C 436.268 116.425, 437.603 118, 438.099 118 C 438.594 118, 439 115.618, 439 112.706 C 439 107.411, 439 107.411, 432.459 107.170 C 426.392 106.946, 425.703 107.143, 422.959 109.887 M 211.223 112.557 C 206.989 115.522, 208.402 117, 215.469 117 C 221.194 117, 221.867 116.799, 221.329 115.250 C 219.871 111.056, 215.159 109.800, 211.223 112.557 M 279.364 112.170 C 276.306 113.650, 275 117.220, 275 124.097 C 275 133.187, 277.555 137, 283.648 137 C 289.246 137, 292 132.819, 292 124.319 C 292 114.121, 286.418 108.754, 279.364 112.170 M 395.174 113.314 C 393.978 114.587, 393 115.937, 393 116.314 C 393 116.692, 395.925 117, 399.500 117 C 406.469 117, 407.704 115.852, 404.171 112.655 C 401.589 110.318, 397.723 110.602, 395.174 113.314" stroke="none" fill="#090909" fill-rule="evenodd"/></svg>